<svg xmlns="http://www.w3.org/2000/svg" id="Layer_2" data-name="Layer 2" viewBox="0 0 612.6 227.74"><defs><style>.cls-1{fill:#936f7b}.cls-2{fill:#d9a0a4}.cls-3{fill:#605156}</style></defs><g id="Layer_4" data-name="Layer 4"><path d="M394.06 61.55c-30.87 12.21-62.96 21.68-96.02 25.37-24.71 2.92-49.71 3.21-74.49 1.32-24.77-1.92-48.85-8.81-71.45-19.11-24.44-11.02-43.6-22.53-71.59-22.53-17.09.02-34.68 3.96-49.33 13.03C9.03 73.94-5.53 101.41 2 127.71c5.61 23.54 25.66 36.39 49.3 34.94 4.34-.39 8.63-1.52 12.54-3.33 1-.44 1.99-.93 2.95-1.46 9.68 7.42 24.63 8.15 35.23 3.01 7.63-3.69 16.25-15.28 6.69-22.33-10.07-7.42-26.72 5.72-35.4 11.6-.49.33-.98.66-1.48.99-4.99-6.05-6.11-14.99-4.97-22.75 1.39-10.87 8.14-20.09 16.68-26.58 2.66-1.95 6.13-3.97 9.84-5.46 3.32 4.43 8.47 7.41 14.06 7 3.96-.27 6.14-4.9 4.09-8.25-1.18-2.16-3.63-3.36-5.9-3.86-3.35-.6-6.73-.81-10.11-.63-.5-3.55.38-7.19 3.09-10.09 4.4-5.32 14.45-6.17 18.19-.2l.62-.23c-.61-2.14-2.2-3.88-3.99-5.18-11.14-8.07-26.94.54-23.29 14.79.13.48.27.96.44 1.43a49.37 49.37 0 0 0-11.2 3.22c-8.67 3.65-16.79 10.52-20.99 18.99-6.02 13.25-4.83 29.39 4.53 40.85.4.47.81.92 1.24 1.36-4.13 2-8.49 3.37-13.09 3.49-21.39.07-38.28-11.52-42.67-32.86-5.86-23.41 7.32-47.66 26.74-60.57 20.3-12.96 46.15-16.21 69.48-10.92 16.18 3.53 30.63 11.79 45.82 18.24 15.31 6.72 31.31 12.34 47.85 15.54 16.48 3.22 33.32 3.92 50.06 3.97 33.38.04 66.84-4.2 98.93-13.45 16.03-4.55 31.62-10.49 47.07-16.69l-.29-.74Zm-292.4 77.7c4.94-.25 9.34 3.45 8.06 8.59-.72 2.7-2.73 5.14-4.83 6.94-7.65 6.12-19.03 5.27-27.3.99a17.89 17.89 0 0 1-3.65-2.48c8.65-6.19 16.76-13.53 27.72-14.04Zm6.16-44.64c2.35.92 3.8 4.26 1.8 6.22-2.98 2.6-7.93.56-10.21-2-1-1.13-1.84-2.38-2.49-3.71 3.77-1.08 7.59-1.45 10.9-.51ZM477.8 69.83c2.49-1.03 4.94-2.24 7.51-2.99.89-.15 1.8-.23 2.78-.05l.05.16c-1.43 1.34-3.13 1.82-4.98 2.07-1.76.37-3.52.69-5.31.97l-.05-.16Z" class="cls-1"/><path d="M586.66 55.82c-1.41 2.3-2.68 4.71-4.31 6.83-.63.64-1.32 1.24-2.22 1.67l-.13-.1c.37-1.92 1.46-3.32 2.81-4.6 1.21-1.33 2.45-2.63 3.72-3.9l.13.1Z" class="cls-2"/><path d="M602.27 27.97c2.49 1.03 4.94 2.24 7.51 2.99.89.15 1.8.23 2.78.05l.05-.16c-1.43-1.34-3.13-1.82-4.98-2.07-1.76-.37-3.52-.69-5.31-.97l-.05.16Z" class="cls-1"/><path d="M530.39 34.11c-1.62-2.16-3.39-4.23-4.76-6.53-.36-.82-.67-1.68-.74-2.68l.14-.08c1.65 1.05 2.55 2.58 3.24 4.31.79 1.61 1.54 3.24 2.26 4.9l-.14.08ZM488.92 113.73c-.29-1.33.11-2.45.75-3.54.51-1.09 1.06-2.16 1.65-3.23l.13.05c-.38 1.77-.62 3.6-1.22 5.28-.29.53-.62 1.05-1.18 1.49l-.13-.05ZM484.43 110.25c.55-1.25 1.53-1.92 2.7-2.43 1.06-.58 2.14-1.13 3.24-1.65l.08.11c-1.35 1.21-2.63 2.55-4.11 3.56-.55.26-1.13.48-1.83.51l-.08-.11ZM482.84 104.95c1.16-.72 2.34-.72 3.59-.48 1.2.12 2.4.28 3.59.48v.14c-1.79.23-3.6.62-5.39.61-.6-.09-1.2-.24-1.8-.61v-.14ZM484.78 99.44c1.36.13 2.29.86 3.14 1.81.88.83 1.73 1.68 2.56 2.57l-.08.11c-1.57-.91-3.23-1.71-4.65-2.8-.42-.44-.81-.92-1.05-1.58l.08-.11ZM489.52 96.27c1.02.91 1.35 2.04 1.47 3.31.22 1.18.41 2.37.56 3.58l-.13.04c-.73-1.65-1.61-3.28-2.11-4.99-.08-.6-.11-1.22.08-1.9l.13-.04ZM495.18 96.47c.29 1.34-.11 2.45-.75 3.55-.51 1.09-1.07 2.17-1.65 3.23l-.13-.05c.38-1.77.62-3.61 1.23-5.29.29-.53.63-1.05 1.18-1.49l.13.05ZM499.65 99.98c-.55 1.25-1.52 1.92-2.69 2.43-1.06.58-2.13 1.12-3.23 1.64l-.08-.11c1.35-1.21 2.62-2.55 4.1-3.55.55-.26 1.12-.48 1.83-.51l.08.11ZM501.2 105.27c-1.16.72-2.34.72-3.59.48-1.2-.12-2.4-.28-3.59-.48v-.14c1.79-.23 3.6-.62 5.39-.61.6.09 1.2.24 1.8.61v.14ZM499.26 110.74c-1.36-.13-2.29-.85-3.13-1.8-.87-.82-1.72-1.68-2.55-2.56l.08-.11c1.56.91 3.22 1.7 4.63 2.78.42.44.8.92 1.05 1.58l-.08.11ZM494.58 113.91c-1.02-.9-1.35-2.04-1.47-3.3-.22-1.18-.41-2.37-.56-3.57l.13-.04c.73 1.65 1.61 3.27 2.11 4.98.08.6.11 1.21-.08 1.89l-.13.04ZM561.04 17.46c-.29-1.33.11-2.45.75-3.54.51-1.09 1.06-2.16 1.65-3.23l.13.05c-.38 1.77-.62 3.6-1.22 5.28-.29.53-.62 1.05-1.18 1.49l-.13-.05ZM556.56 13.99c.55-1.25 1.53-1.92 2.7-2.43 1.06-.58 2.14-1.13 3.24-1.65l.08.11c-1.35 1.21-2.63 2.55-4.11 3.56-.55.26-1.13.48-1.83.51l-.08-.11ZM554.96 8.68c1.16-.72 2.34-.72 3.59-.48 1.2.12 2.4.28 3.59.48v.14c-1.79.23-3.6.62-5.39.61-.6-.09-1.2-.24-1.8-.61v-.14ZM556.91 3.17c1.36.13 2.29.86 3.14 1.81.88.83 1.73 1.68 2.56 2.57l-.08.11c-1.57-.91-3.23-1.71-4.65-2.8-.42-.44-.81-.92-1.05-1.58l.08-.11ZM561.64 0c1.02.91 1.35 2.04 1.47 3.31.22 1.18.41 2.37.56 3.58l-.13.04c-.73-1.65-1.61-3.28-2.11-4.99-.08-.6-.11-1.22.08-1.9l.13-.04ZM567.31.2c.29 1.34-.11 2.45-.75 3.55-.51 1.09-1.07 2.17-1.65 3.23l-.13-.05c.38-1.77.62-3.61 1.23-5.29.29-.53.63-1.05 1.18-1.49l.13.05ZM571.77 3.71c-.55 1.25-1.52 1.92-2.69 2.43-1.06.58-2.13 1.12-3.23 1.64l-.08-.11c1.35-1.21 2.62-2.55 4.1-3.55.55-.26 1.12-.48 1.83-.51l.08.11ZM573.33 9c-1.16.72-2.34.72-3.59.48-1.2-.12-2.4-.28-3.59-.48v-.14c1.79-.23 3.6-.62 5.39-.61.6.09 1.2.24 1.8.61V9ZM571.38 14.47c-1.36-.13-2.29-.85-3.13-1.8-.87-.82-1.72-1.68-2.55-2.56l.08-.11c1.56.91 3.22 1.7 4.63 2.78.42.44.8.92 1.05 1.58l-.08.11ZM566.7 17.64c-1.02-.9-1.35-2.04-1.47-3.3-.22-1.18-.41-2.37-.56-3.57l.13-.04c.73 1.65 1.61 3.27 2.11 4.98.08.6.11 1.21-.08 1.89l-.13.04Z" class="cls-2"/><path d="M476.48 28.4c-.29-1.33.11-2.45.75-3.54.51-1.09 1.06-2.16 1.65-3.23l.13.05c-.38 1.77-.62 3.6-1.22 5.28-.29.53-.62 1.05-1.18 1.49l-.13-.05ZM471.99 24.92c.55-1.25 1.53-1.92 2.7-2.43 1.06-.58 2.14-1.13 3.24-1.65l.08.11c-1.35 1.21-2.63 2.55-4.11 3.56-.55.26-1.13.48-1.83.51l-.08-.11ZM470.4 19.62c1.16-.72 2.34-.72 3.59-.48 1.2.12 2.4.28 3.59.48v.14c-1.79.23-3.6.62-5.39.61-.6-.09-1.2-.24-1.8-.61v-.14ZM472.34 14.11c1.36.13 2.29.86 3.14 1.81.88.83 1.73 1.68 2.56 2.57l-.08.11c-1.57-.91-3.23-1.71-4.65-2.8-.42-.44-.81-.92-1.05-1.58l.08-.11ZM477.07 10.94c1.02.91 1.35 2.04 1.47 3.31.22 1.18.41 2.37.56 3.58l-.13.04c-.73-1.65-1.61-3.28-2.11-4.99-.08-.6-.11-1.22.08-1.9l.13-.04ZM482.74 11.14c.29 1.34-.11 2.45-.75 3.55-.51 1.09-1.07 2.17-1.65 3.23l-.13-.05c.38-1.77.62-3.61 1.23-5.29.29-.53.63-1.05 1.18-1.49l.13.05ZM487.21 14.65c-.55 1.25-1.52 1.92-2.69 2.43-1.06.58-2.13 1.12-3.23 1.64l-.08-.11c1.35-1.21 2.62-2.55 4.1-3.55.55-.26 1.12-.48 1.83-.51l.08.11ZM488.76 19.94c-1.16.72-2.34.72-3.59.48-1.2-.12-2.4-.28-3.59-.48v-.14c1.79-.23 3.6-.62 5.39-.61.6.09 1.2.24 1.8.61v.14ZM486.82 25.41c-1.36-.13-2.29-.85-3.13-1.8-.87-.82-1.72-1.68-2.55-2.56l.08-.11c1.56.91 3.22 1.7 4.63 2.78.42.44.8.92 1.05 1.58l-.08.11ZM482.14 28.58c-1.02-.9-1.35-2.04-1.47-3.3-.22-1.18-.41-2.37-.56-3.57l.13-.04c.73 1.65 1.61 3.27 2.11 4.98.08.6.11 1.21-.08 1.89l-.13.04ZM536.08 73.43c-.29-1.33.11-2.45.75-3.54.51-1.09 1.06-2.16 1.65-3.23l.13.05c-.38 1.77-.62 3.6-1.22 5.28-.29.53-.62 1.05-1.18 1.49l-.13-.05ZM531.6 69.95c.55-1.25 1.53-1.92 2.7-2.43 1.06-.58 2.14-1.13 3.24-1.65l.08.11c-1.35 1.21-2.63 2.55-4.11 3.56-.55.26-1.13.48-1.83.51l-.08-.11ZM530 64.64c1.16-.72 2.34-.72 3.59-.48 1.2.12 2.4.28 3.59.48v.14c-1.79.23-3.6.62-5.39.61-.6-.09-1.2-.24-1.8-.61v-.14ZM531.95 59.14c1.36.13 2.29.86 3.14 1.81.88.83 1.73 1.68 2.56 2.57l-.08.11c-1.57-.91-3.23-1.71-4.65-2.8-.42-.44-.81-.92-1.05-1.58l.08-.11ZM536.68 55.96c1.02.91 1.35 2.04 1.47 3.31.22 1.18.41 2.37.56 3.58l-.13.04c-.73-1.65-1.61-3.28-2.11-4.99-.08-.6-.11-1.22.08-1.9l.13-.04ZM542.35 56.16c.29 1.34-.11 2.45-.75 3.55-.51 1.09-1.07 2.17-1.65 3.23l-.13-.05c.38-1.77.62-3.61 1.23-5.29.29-.53.63-1.05 1.18-1.49l.13.05ZM546.81 59.67c-.55 1.25-1.52 1.92-2.69 2.43-1.06.58-2.13 1.12-3.23 1.64l-.08-.11c1.35-1.21 2.62-2.55 4.1-3.55.55-.26 1.12-.48 1.83-.51l.08.11ZM548.37 64.96c-1.16.72-2.34.72-3.59.48-1.2-.12-2.4-.28-3.59-.48v-.14c1.79-.23 3.6-.62 5.39-.61.6.09 1.2.24 1.8.61v.14ZM546.42 70.43c-1.36-.13-2.29-.85-3.13-1.8-.87-.82-1.72-1.68-2.55-2.56l.08-.11c1.56.91 3.22 1.7 4.63 2.78.42.44.8.92 1.05 1.58l-.08.11ZM541.74 73.6c-1.02-.9-1.35-2.04-1.47-3.3-.22-1.18-.41-2.37-.56-3.57l.13-.04c.73 1.65 1.61 3.27 2.11 4.98.08.6.11 1.21-.08 1.89l-.13.04Z" class="cls-1"/><path d="M393.57 96.36c-.35-5.56 1.53-10.7 4-15.54 2.11-4.91 4.34-9.77 6.69-14.58l.39.14c-1.21 5.21-2.53 10.39-4 15.54-1.14 5.31-2.91 10.49-6.69 14.58l-.39-.14ZM373.58 80.95c2.99-4.72 7.55-7.77 12.4-10.25 4.61-2.75 9.28-5.37 14.02-7.89l.23.34c-4.06 3.52-8.19 6.94-12.4 10.25-4.05 3.64-8.55 6.79-14.02 7.89l-.23-.34ZM366.44 57.36c5.12-2.19 10.6-2.13 15.98-1.43 5.34.34 10.66.83 15.98 1.43v.41c-5.32.6-10.65 1.09-15.98 1.43-5.39.7-10.86.76-15.98-1.43v-.41ZM375.03 32.84c5.4 1.38 9.71 4.77 13.55 8.61 4.03 3.52 7.96 7.16 11.81 10.88l-.25.32c-4.59-2.76-9.11-5.63-13.55-8.61-4.7-2.73-9.08-6.02-11.81-10.88l.25-.32ZM396.05 18.68c3.55 4.28 5.05 9.55 5.9 14.91 1.18 5.21 2.23 10.45 3.15 15.72l-.39.12a329.74 329.74 0 0 1-5.9-14.91c-2.2-4.96-3.8-10.19-3.15-15.72l.39-.12ZM421.26 19.51c.35 5.57-1.54 10.71-4 15.56a325.86 325.86 0 0 1-6.7 14.6l-.39-.14a331.53 331.53 0 0 1 4-15.56c1.14-5.32 2.92-10.5 6.7-14.6l.39.14ZM441.15 35.07c-2.98 4.7-7.53 7.75-12.36 10.22-4.59 2.74-9.26 5.35-13.98 7.86l-.23-.34c4.04-3.51 8.16-6.92 12.36-10.22 4.04-3.63 8.52-6.77 13.98-7.86l.23.34ZM448.12 58.58c-5.12 2.19-10.59 2.13-15.98 1.43-5.34-.34-10.66-.83-15.98-1.43v-.41c5.32-.6 10.64-1.09 15.98-1.43 5.39-.7 10.86-.76 15.98 1.43v.41ZM439.54 82.93c-5.38-1.37-9.67-4.74-13.5-8.57-4.01-3.51-7.92-7.13-11.75-10.84l.25-.32c4.57 2.75 9.07 5.6 13.5 8.57 4.68 2.71 9.04 5.99 11.75 10.84l-.25.32ZM418.75 97.09c-3.55-4.28-5.04-9.53-5.89-14.88-1.18-5.2-2.22-10.44-3.15-15.69l.39-.12c2.08 4.92 4.05 9.88 5.89 14.88 2.2 4.95 3.8 10.17 3.15 15.69l-.39.12Z" class="cls-2"/><path d="M406.53 108.97c-2.22-6.13-2.14-12.3-1.45-18.6.34-6.21.82-12.41 1.42-18.61h.41c.61 6.19 1.1 12.39 1.45 18.6.7 6.3.79 12.48-1.42 18.61h-.41ZM376.75 98.5c1.91-6.19 5.69-11.04 10.02-15.62 4-4.72 8.11-9.34 12.31-13.89l.33.25c-3.23 5.28-6.57 10.49-10.02 15.62-3.23 5.42-6.86 10.37-12.31 13.89l-.33-.25ZM359.67 40.74c6.44-.03 12.14 2.11 17.75 4.88 5.65 2.4 11.24 4.93 16.78 7.57l-.14.38c-5.95-1.5-11.88-3.12-17.75-4.88-6.08-1.45-11.85-3.44-16.78-7.57l.14-.38ZM378.92 15.61c5.25 3.81 8.62 8.96 11.55 14.54 3.18 5.31 6.23 10.7 9.18 16.14l-.34.23c-3.95-4.77-7.81-9.61-11.55-14.54-4.09-4.81-7.6-9.85-9.18-16.14l.34-.23ZM408.03 6.8c2.22 6.13 2.13 12.31 1.44 18.61-.34 6.21-.82 12.41-1.42 18.61h-.41c-.61-6.19-1.09-12.4-1.44-18.6-.7-6.3-.79-12.48 1.42-18.61h.41ZM438.42 17.68c-1.91 6.19-5.69 11.04-10.02 15.62-4 4.72-8.11 9.34-12.31 13.89l-.33-.25c3.23-5.28 6.57-10.49 10.02-15.62 3.23-5.42 6.86-10.37 12.31-13.89l.33.25ZM455.74 43.4c-5.15 3.86-11.01 5.52-17.16 6.64-5.96 1.43-11.96 2.73-17.98 3.9l-.12-.39c5.68-2.33 11.39-4.56 17.16-6.64 5.75-2.45 11.56-4.29 17.98-3.9l.12.39ZM454.98 74.75c-6.44.03-12.14-2.11-17.75-4.88-5.65-2.4-11.24-4.93-16.78-7.57l.14-.38c5.95 1.5 11.87 3.12 17.75 4.88 6.08 1.45 11.85 3.44 16.78 7.57l-.14.38ZM436.06 99.88c-5.25-3.81-8.62-8.96-11.55-14.54-3.18-5.31-6.23-10.7-9.18-16.14l.34-.23c3.95 4.77 7.81 9.61 11.55 14.54 4.09 4.81 7.6 9.85 9.18 16.14l-.34.23Z" class="cls-1"/><path d="M254.27 159.27v4.11h-32.89v-56.05h8.75v51.94h24.14zM452.36 155.26c-2.14 5.69-9.01 8.54-14.87 8.85-.11.01-.75.03-1.25.03-.19 0-.37 0-.5-.01h-.1c-.26 0-.69-.04-1.49-.13-.26-.03-1.47-.24-1.82-.32-.33-.08-1.64-.44-1.93-.54-.54-.18-1.07-.37-1.58-.61-.68-.29-1.32-.61-1.9-.94-1.25-.69-2.42-1.53-3.47-2.46l-.51-.47c-.17-.15-1.07-1.11-1.24-1.31 0 0-.76-.83-1.01-1.19-.88-1.25-1.56-2.48-2.07-3.81l-.36-.94h4.07l.19.33c1.12 1.83 2.51 3.43 4.14 4.75.03.01.33.29.5.42 1.5 1.15 3.14 1.99 4.89 2.5.25.08 2.14.51 2.78.57.81.07 1.61.08 2.39.03 3.89-.24 7.65-1.83 9.8-4.15.95-1.02.93-2.22.65-2.89-.56-1.29-2.6-2.53-6.08-3.67-2.1-.69-4.01-1.31-5.76-1.85-3.97-1.26-7.11-2.25-9.74-3.4-3.37-1.49-5.5-3.44-6.32-5.85-.97-2.82.28-5.15.33-5.26 2.5-4.82 8.44-8.35 14.79-8.76.46-.03.86-.04 1.26-.04.37 0 1.69.08 2 .11.65.07 1.32.18 2.03.33.18.04 1.9.53 2.15.61.29.11 1.6.64 1.9.78.33.17 1.53.81 1.81 1 .36.21.72.44 1.06.68.78.57 1.43 1.1 2 1.62.33.31.64.6.93.92.1.1.31.33.47.51l.22.25c1.06 1.28 1.93 2.65 2.6 4.08l.46.99h-4.49l-.19-.33a16.192 16.192 0 0 0-3.82-4.26c-.15-.11-.99-.69-1.12-.78-.63-.42-1.25-.76-1.99-1.07-.24-.11-.44-.21-.65-.29-.53-.21-1.01-.37-1.5-.5-.32-.1-.61-.18-.92-.22-.62-.14-1.25-.22-1.92-.26-.63-.06-1.31-.06-2-.01-3.86.25-8.53 1.93-10.3 5.1-.26.68-.29 1.32-.03 1.89.83 1.76 4.29 2.83 7.05 3.69.86.26 1.87.54 3.03.86 4.96 1.37 11.75 3.26 14.76 5.71 4.96 4.01 2.87 9.26 2.67 9.74ZM333.15 107.33l.29 20.08c-3.18-2.17-6.85-3.32-10.71-3.32-10.71 0-19.41 8.99-19.41 20.01s8.71 20.03 19.41 20.03c3.87 0 7.54-1.15 10.71-3.32v2.54h8.74l-.29-56.02h-8.74Zm-10.42 20.89c4.04 0 7.83 1.61 10.71 4.54v22.71c-2.87 2.93-6.67 4.54-10.71 4.54-8.43 0-15.3-7.12-15.3-15.9s6.87-15.89 15.3-15.89ZM286.73 124.81v2.65a18.708 18.708 0 0 0-10.78-3.37c-10.71 0-19.43 8.99-19.43 20.01s8.72 20.03 19.43 20.03c3.9 0 7.6-1.17 10.78-3.37v2.65h8.74v-38.59h-8.74Zm0 8.03v22.54c-2.89 2.99-6.71 4.62-10.78 4.62-8.44 0-15.3-7.12-15.3-15.9s6.86-15.89 15.3-15.89c4.07 0 7.89 1.64 10.78 4.62ZM354.8 124.75h8.74v38.59h-8.74zM363.53 111.69c0 2.42-1.96 4.37-4.36 4.37s-4.37-1.96-4.37-4.37a4.366 4.366 0 0 1 8.73 0ZM411.85 146.16v-2.06c0-11.03-8.72-20.01-19.43-20.01s-19.12 8.74-19.41 19.53v.19c-.01.1-.01.19-.01.29 0 11.04 8.72 20.03 19.43 20.03 7.5 0 14.39-4.53 17.58-11.5.18-.4.51-1.15.51-1.15l.43-.97h-4.5l-.18.4c-2.53 5.53-7.97 9.1-13.85 9.1-4.01 0-7.79-1.6-10.68-4.5v-9.35h30.11Zm-19.43-17.94c7.67 0 14.19 6.01 15.17 13.83h-25.84v-9.33c2.89-2.9 6.67-4.5 10.68-4.5Z" class="cls-3"/><circle cx="200.12" cy="111.26" r="3.93" class="cls-1"/><path d="M211.14 150.01c-2.25 1.85-4.66 3.54-7.09 5.09-4.9 2.87-16.47 8.71-20.4 3.43-5.59-7.5 16.46-33.68 16.46-33.68l-9.85-.08s-13.83 5.98-21.03 8.7c-1.27-6-6.26-9.92-14.88-8.35-6.62 1.21-10.62 3.64-16.03 7.27-.37.26-.73.53-1.08.81 9.45-14.85 17.82-25.88 17.82-25.88h-11.68c-18.13 26.89-32.26 57.97-41.04 89.14-2.99 10.32-6.58 20.49-8.07 31.18l.76.1c1.05-5.17 2.97-10.19 4.8-15.19 5.55-14.28 11.97-30.34 18.13-44.36 4.23-9.61 9.84-19.69 15.41-28.8a56.21 56.21 0 0 1 4.79-4.03c9.98-7.47 24.01-9.5 23.64 1.02-2.55 1.06-5.04 2.17-7.42 3.39-5.74 2.73-12.39 5.43-16.53 10.57-1.6 2.05-2.76 4.66-2.72 7.53-.02 3.42 3.65 6.18 6.92 6.2 10.4.07 21.43-9.51 25.39-18.29 1.6-3.54 2.29-7.09 2.07-10.22l19.23-8.41c-5.97 9.26-17.12 26.57-9.2 34.54 9.39 7.37 23.17-2.32 32.34-10.91l-.74-.77Zm-50.8-7.28c-1.55 4.09-4.63 7.35-7.67 10.48-3.01 2.82-6.66 6.28-10.72 6.37-3.65.08-3.77-4.57-1.37-7.39 3.8-4.8 9.41-7.6 14.74-10.42l6.13-2.68c-.24 1.11-.61 2.32-1.11 3.64Z" class="cls-1"/></g></svg>